<?xml version="1.0" standalone="no"?>
<!DOCTYPE svg PUBLIC "-//W3C//DTD SVG 20010904//EN"
 "http://www.w3.org/TR/2001/REC-SVG-20010904/DTD/svg10.dtd">
<svg version="1.0" xmlns="http://www.w3.org/2000/svg"
 width="677.000000pt" height="932.000000pt" viewBox="0 0 677.000000 932.000000"
 preserveAspectRatio="xMidYMid meet">

<g transform="translate(0.000000,932.000000) scale(0.100000,-0.100000)"
fill="#000000" stroke="none">
<path d="M1595 9170 l-1110 -5 -57 -23 c-68 -27 -157 -105 -195 -170 -15 -24
-35 -74 -45 -111 -17 -61 -18 -123 -18 -938 0 -820 -1 -873 -17 -882 -17 -10
-17 -10 0 -11 16 0 17 -32 17 -525 0 -486 -1 -525 -17 -525 -16 0 -16 -1 0
-12 15 -12 17 -70 23 -605 4 -355 4 -593 -2 -593 -5 0 -7 -852 -4 -2127 5
-1920 7 -2132 21 -2170 42 -108 99 -171 196 -216 l48 -22 1135 -2 c743 -2
1130 0 1120 7 -10 6 591 10 1740 10 1893 0 1819 -2 1912 53 99 58 149 147 167
299 7 53 11 1054 13 2731 1 1456 5 2647 8 2647 3 0 5 243 5 540 0 297 -3 540
-7 540 -4 0 -9 393 -11 873 -3 781 -5 879 -20 935 -37 139 -95 215 -204 269
l-77 38 -1755 0 c-966 0 -2255 -2 -2866 -5z m4589 -15 c32 -8 68 -22 79 -30
29 -20 22 -19 -43 8 l-55 22 -1725 0 c-1656 0 -1727 -1 -1780 -19 -30 -10 -66
-25 -78 -33 -13 -8 -26 -13 -28 -10 -9 9 63 47 117 61 83 23 3427 23 3513 1z
m-3620 -25 l-52 -30 -1018 -1 c-561 0 -1040 -4 -1066 -8 -26 -4 -45 -4 -42 1
3 4 16 8 30 8 14 0 23 4 20 9 -3 5 1 12 10 15 24 9 36 7 28 -6 -4 -7 -3 -8 5
-4 6 4 9 12 5 17 -3 6 14 9 43 8 165 -6 1995 4 2028 10 63 13 63 12 9 -19z
m1139 -37 c-79 -2 -207 -2 -285 0 -79 1 -15 3 142 3 157 0 221 -2 143 -3z
m1700 0 c-67 -2 -179 -2 -250 0 -70 1 -15 3 122 3 138 0 195 -2 128 -3z
m-3060 -46 c53 -2 97 0 97 5 0 4 5 8 10 8 6 0 -3 -24 -20 -53 -16 -30 -40 -89
-52 -133 l-23 -79 -5 -2460 c-3 -1353 -7 -2192 -9 -1865 -1 327 -6 620 -11
650 l-7 55 -2 -49 c-1 -46 -2 -48 -25 -42 -22 5 -25 2 -29 -26 -4 -32 -4 -31
-7 7 -2 38 -3 39 -9 10 -5 -27 -10 -30 -49 -33 -34 -3 -42 -7 -42 -23 0 -16
-7 -19 -40 -19 -33 0 -40 -3 -40 -20 0 -13 -7 -20 -20 -20 -13 0 -20 -7 -20
-20 0 -13 -7 -20 -20 -20 -13 0 -20 -7 -20 -20 0 -13 -7 -20 -18 -20 -10 0
-24 -9 -32 -20 -8 -11 -20 -20 -28 -20 -7 0 -20 -7 -28 -15 -9 -8 -24 -15 -35
-15 -10 0 -19 -4 -19 -10 0 -5 -9 -10 -20 -10 -11 0 -20 -6 -20 -14 0 -8 -9
-18 -20 -21 -11 -3 -20 -13 -20 -21 0 -8 -9 -14 -20 -14 -13 0 -20 -7 -20 -20
0 -17 -7 -20 -40 -20 -33 0 -40 -3 -40 -20 0 -17 -7 -20 -40 -20 -33 0 -40 -3
-40 -20 0 -13 -7 -20 -20 -20 -13 0 -20 -7 -20 -20 0 -13 -7 -20 -18 -20 -10
0 -24 -9 -32 -20 -8 -11 -20 -20 -28 -20 -7 0 -20 -7 -28 -15 -9 -8 -24 -15
-35 -15 -10 0 -19 -4 -19 -10 0 -5 -9 -10 -20 -10 -11 0 -20 -7 -20 -15 0 -8
-4 -15 -10 -15 -5 0 -10 -9 -10 -20 0 -11 -4 -20 -10 -20 -5 0 -10 -9 -10 -20
0 -11 -4 -20 -10 -20 -5 0 -10 -7 -10 -15 0 -8 -4 -15 -10 -15 -5 0 -10 7 -10
15 0 8 -7 15 -15 15 -8 0 -15 -6 -15 -14 0 -8 -9 -18 -20 -21 -11 -3 -27 -13
-36 -22 -8 -9 -36 -18 -61 -21 -39 -4 -46 -9 -55 -33 -7 -21 -17 -29 -34 -29
-17 0 -24 -6 -24 -20 0 -11 -4 -20 -10 -20 -5 0 -10 5 -10 10 0 6 -4 10 -10
10 -5 0 -10 -9 -10 -20 0 -16 -7 -20 -30 -20 -27 0 -30 -3 -30 -32 0 -28 -6
-35 -38 -49 -20 -9 -49 -20 -64 -23 -16 -4 -28 -12 -28 -19 0 -7 -9 -19 -20
-27 -11 -8 -20 -22 -20 -32 0 -14 -8 -18 -35 -18 -28 0 -35 -4 -35 -20 0 -13
-7 -20 -20 -20 -11 0 -20 -4 -20 -10 0 -5 -6 -10 -14 -10 -18 0 -27 -22 -37
-85 -4 -27 -15 -79 -24 -115 -9 -36 -20 -90 -24 -120 -6 -43 -26 -102 -47
-138 -1 -2 -12 6 -24 18 -37 37 -53 311 -80 1345 -5 198 -13 1183 -16 2190 -6
1429 -5 1841 5 1881 14 57 57 116 103 140 67 35 209 40 1018 37 432 -2 829 -5
883 -6z m3740 -58 c76 -25 148 -79 188 -139 63 -95 59 50 57 -2139 -1 -1098
-4 -1959 -5 -1915 -4 77 -5 82 -27 86 -49 10 -81 -2 -96 -35 -22 -49 -52 -91
-90 -122 -39 -32 -40 -34 -40 -65 0 -13 -5 -18 -15 -14 -9 4 -19 -4 -27 -23
-7 -15 -26 -42 -43 -59 l-30 -30 -105 2 c-66 1 -106 6 -108 13 -2 6 -25 11
-50 11 -26 0 -58 7 -72 15 -48 27 -71 35 -128 41 -31 3 -60 8 -65 11 -14 9
-103 16 -182 14 -69 -1 -82 -5 -96 -23 -9 -11 -21 -18 -27 -14 -15 9 -42 -4
-42 -21 0 -8 -9 -17 -20 -20 -13 -3 -20 -14 -20 -29 0 -15 -6 -24 -15 -24 -10
0 -15 -11 -15 -35 0 -19 5 -35 10 -35 14 0 13 -16 -2 -32 -24 -26 -50 -79 -44
-93 2 -7 0 -16 -7 -19 -9 -3 -8 -8 3 -15 13 -10 13 -12 0 -22 -11 -8 -12 -12
-2 -16 7 -2 12 -22 12 -44 0 -32 -3 -39 -20 -39 -13 0 -20 -7 -20 -19 0 -11
-4 -21 -8 -23 -5 -1 -12 -29 -16 -60 -6 -57 -6 -58 19 -58 18 0 25 -5 25 -20
0 -16 7 -20 30 -20 23 0 30 -5 30 -19 0 -11 -6 -21 -12 -24 -7 -2 -10 -8 -6
-12 4 -4 14 -3 21 4 12 9 16 6 20 -19 4 -18 13 -30 22 -30 8 0 15 -4 15 -10 0
-5 9 -10 20 -10 13 0 20 -7 20 -20 0 -27 35 -26 54 2 9 12 19 19 22 15 4 -4 1
-13 -6 -22 -11 -13 -6 -15 39 -15 44 0 51 -3 51 -20 0 -13 7 -20 20 -20 13 0
20 -7 20 -20 0 -11 7 -20 15 -20 9 0 15 -10 16 -22 1 -22 1 -22 9 2 l8 25 1
-27 c1 -15 -3 -30 -9 -33 -12 -7 -14 -26 -2 -24 25 4 32 -4 32 -40 0 -22 -5
-43 -10 -46 -13 -8 -13 -55 -1 -55 5 0 13 -9 16 -20 5 -16 15 -20 46 -20 21 0
39 -4 39 -10 0 -5 6 -10 14 -10 8 0 16 -5 18 -11 2 -7 27 -12 62 -12 47 0 60
4 72 22 12 17 25 21 65 21 34 0 49 4 49 13 0 8 11 19 25 25 14 7 28 19 31 27
4 8 14 15 24 15 10 0 20 9 23 20 3 11 12 20 21 20 9 0 16 5 16 10 0 6 10 10
22 10 12 0 18 3 15 7 -8 7 12 34 22 29 3 -1 19 13 36 33 16 20 22 30 12 22
-15 -12 -17 -12 -11 3 3 9 10 16 15 16 5 0 9 6 9 13 0 7 9 18 20 25 11 7 20
17 20 24 0 6 6 19 13 27 8 9 20 32 27 51 8 19 20 41 28 50 27 31 84 123 94
151 5 16 14 30 19 30 5 1 14 2 19 3 18 2 30 30 30 73 0 23 6 48 14 56 8 8 16
27 19 43 2 16 4 -191 4 -461 0 -269 -2 -478 -4 -462 -3 19 -10 27 -25 27 -12
0 -18 3 -15 6 4 4 -3 15 -14 25 -41 35 -119 36 -119 1 0 -13 -2 -14 -8 -4 -5
7 -18 14 -31 17 -18 3 -21 1 -16 -15 5 -15 -2 -21 -37 -32 -24 -7 -49 -18 -56
-25 -7 -7 -27 -13 -43 -13 -19 0 -32 -6 -36 -17 -4 -10 -11 -21 -16 -24 -15
-11 40 -60 79 -71 31 -8 34 -11 22 -25 -11 -14 -10 -15 7 -10 33 10 81 18 65
11 -8 -4 -17 -10 -20 -14 -11 -15 -168 -59 -232 -64 -37 -3 -87 -8 -110 -10
-36 -4 -38 -4 -13 3 l30 9 -35 2 c-52 3 -86 9 -175 30 -223 54 -363 70 -609
70 -129 0 -259 -5 -288 -10 -158 -32 -228 -56 -491 -171 l-98 -43 28 -23 c15
-13 39 -33 52 -46 l24 -22 -44 -3 c-24 -1 -134 -6 -244 -12 -110 -5 -245 -16
-300 -25 -87 -13 -486 -99 -570 -123 -17 -5 64 -7 195 -5 124 2 288 0 365 -5
129 -8 112 -9 -210 -12 -192 -1 -370 -3 -395 -4 -25 -1 -124 -3 -220 -5 l-175
-3 0 3024 0 3023 32 61 c44 85 127 158 206 183 60 19 101 20 1650 20 1585 1
1588 1 1650 -20z m371 -55 c3 -8 2 -12 -4 -9 -6 3 -10 10 -10 16 0 14 7 11 14
-7z m-6194 -1546 c-4 -1189 -6 -1379 -10 -888 -4 509 -6 398 -7 -595 -2 -790
1 -1215 7 -1205 6 10 9 -738 9 -2120 0 -1174 -3 -2129 -6 -2122 -2 6 -9 10
-13 7 -16 -10 -43 43 -36 71 4 14 3 23 -1 21 -4 -3 -7 385 -6 861 2 477 4
1364 6 1972 2 608 7 1116 11 1130 5 14 6 22 2 19 -4 -3 -11 -26 -16 -50 -6
-27 -8 775 -7 2129 1 1195 5 2163 9 2150 3 -14 6 3 7 42 1 46 4 61 11 50 8
-13 10 -12 10 3 0 22 23 59 30 48 3 -5 3 -690 0 -1523z m6218 1457 c0 -16 -2
-15 -8 5 -11 34 -11 60 0 35 5 -11 8 -29 8 -40z m-4084 -14 c-4 -23 -9 -40
-11 -37 -3 3 -2 23 2 46 4 23 9 39 11 37 3 -2 2 -23 -2 -46z m4093 -58 c-3
-10 -5 -2 -5 17 0 19 2 27 5 18 2 -10 2 -26 0 -35z m-60 -2508 c2 -1364 -1
-2536 -6 -2605 -5 -74 -9 918 -10 2455 0 1419 -3 2605 -6 2635 -5 51 -4 53 7
25 10 -23 13 -570 15 -2510z m-4050 2453 c-2 -13 -4 -5 -4 17 -1 22 1 32 4 23
2 -10 2 -28 0 -40z m79 -2545 c-3 -1423 -9 -2589 -11 -2592 -8 -7 -6 5080 1
5133 4 25 9 46 12 46 3 0 2 -1164 -2 -2587z m4041 2520 c-3 -10 -5 -2 -5 17 0
19 2 27 5 18 2 -10 2 -26 0 -35z m-6240 -3405 c-1 -51 -3 -10 -3 92 0 102 2
143 3 93 2 -51 2 -135 0 -185z m6240 210 c-2 -13 -4 -5 -4 17 -1 22 1 32 4 23
2 -10 2 -28 0 -40z m-6240 -385 c-2 -16 -4 -5 -4 22 0 28 2 40 4 28 2 -13 2
-35 0 -50z m6240 -325 c-3 -7 -5 -2 -5 12 0 14 2 19 5 13 2 -7 2 -19 0 -25z
m0 -1070 c-2 -18 -4 -6 -4 27 0 33 2 48 4 33 2 -15 2 -42 0 -60z m-1081 -65
c-11 -11 -19 6 -11 24 8 17 8 17 12 0 3 -10 2 -21 -1 -24z m1081 -80 c-3 -10
-5 -2 -5 17 0 19 2 27 5 18 2 -10 2 -26 0 -35z m0 -85 c-3 -7 -5 -2 -5 12 0
14 2 19 5 13 2 -7 2 -19 0 -25z m-4050 -40 c-3 -7 -5 -2 -5 12 0 14 2 19 5 13
2 -7 2 -19 0 -25z m3982 -52 c1 -57 -6 -41 -12 29 -4 39 -3 51 2 35 5 -14 9
-43 10 -64z m68 -108 c-2 -24 -4 -7 -4 37 0 44 2 63 4 43 2 -21 2 -57 0 -80z
m-170 -425 c-2 -21 -4 -6 -4 32 0 39 2 55 4 38 2 -18 2 -50 0 -70z m-2120 31
c-3 -3 -12 -4 -19 -1 -8 3 -5 6 6 6 11 1 17 -2 13 -5z m2290 -186 c-2 -13 -4
-5 -4 17 -1 22 1 32 4 23 2 -10 2 -28 0 -40z m0 -330 c-1 -40 -3 -10 -3 67 0
77 1 110 3 73 2 -37 2 -100 0 -140z m-2940 -14 c-3 -3 -12 -4 -19 -1 -8 3 -5
6 6 6 11 1 17 -2 13 -5z m-944 -11 c-13 -2 -33 -2 -45 0 -13 2 -3 4 22 4 25 0
35 -2 23 -4z m745 0 c-26 -2 -71 -2 -100 0 -29 2 -8 3 47 3 55 0 79 -1 53 -3z
m-305 -10 c-62 -2 -164 -2 -225 0 -62 1 -12 3 112 3 124 0 174 -2 113 -3z
m3444 -185 c-2 -24 -4 -5 -4 42 0 47 2 66 4 43 2 -24 2 -62 0 -85z m-3049 -43
c-3 -4 -93 -13 -200 -21 -245 -18 -308 -29 -428 -75 -46 -18 -45 -16 -30 -34
20 -24 223 -105 263 -105 10 0 29 -7 42 -16 29 -19 35 -40 8 -26 -10 5 -61 12
-113 15 -87 5 -92 4 -58 -8 46 -17 206 -42 318 -50 93 -7 135 -13 128 -21 -12
-12 -451 24 -696 56 -40 6 -88 10 -107 10 l-35 0 0 103 0 103 254 28 c331 37
671 58 654 41z m1985 -72 c-7 -2 -19 -2 -25 0 -7 3 -2 5 12 5 14 0 19 -2 13
-5z m-4508 -23 c4 -6 1 -17 -5 -26 -15 -18 -42 0 -33 22 6 16 29 19 38 4z
m185 -15 c0 -12 -16 -15 -80 -15 -64 0 -80 3 -80 15 0 12 16 15 80 15 64 0 80
-3 80 -15z m4410 5 c0 -5 -9 -10 -20 -10 -11 0 -20 5 -20 10 0 6 9 10 20 10
11 0 20 -4 20 -10z m977 -582 c-1 -112 -2 -23 -2 197 0 220 1 311 2 203 2
-108 2 -288 0 -400z m-5392 512 c0 -11 -9 -14 -34 -12 -55 6 -101 -6 -101 -26
0 -31 22 -42 83 -42 80 0 73 -24 -9 -28 -59 -3 -74 -12 -74 -44 0 -15 10 -18
63 -18 66 0 79 -4 71 -23 -4 -12 -139 -16 -150 -4 -5 5 -7 50 -4 102 1 11 -2
32 -5 47 -5 19 -1 32 14 47 19 19 32 21 84 19 47 -2 62 -7 62 -18z m5223 -147
l-2 -158 -3 128 -4 129 -42 -6 c-23 -2 -70 -8 -104 -11 -60 -7 -89 -25 -39
-25 13 0 38 -14 56 -30 l33 -31 -169 1 c-93 0 -191 -2 -219 -5 -27 -3 -77 -8
-110 -12 -33 -3 -69 -11 -80 -18 -21 -13 -73 -21 -205 -30 -101 -7 -252 -27
-246 -32 9 -9 643 -47 1094 -66 l43 -2 -3 -410 -3 -410 -29 -63 c-36 -78 -113
-151 -194 -184 l-57 -23 -1600 2 c-1199 1 -1612 4 -1645 13 -87 23 -194 112
-214 177 l-7 23 198 2 198 2 -205 6 -204 5 -12 40 c-7 22 -13 100 -13 173 l-1
133 428 -5 c342 -4 380 -3 194 4 -128 4 -243 11 -255 14 -12 3 -100 6 -195 6
l-172 2 0 164 0 164 63 2 c34 1 73 1 87 1 69 -2 419 20 522 32 64 8 134 15
155 15 21 0 45 5 53 11 10 7 -35 8 -150 4 -226 -8 -691 -24 -712 -25 -10 0
-18 5 -18 10 0 6 34 10 83 10 126 0 451 20 457 28 3 4 17 15 33 25 15 10 27
26 27 37 0 17 -3 18 -30 9 -22 -8 -30 -17 -30 -35 0 -17 -6 -24 -20 -24 -11 0
-20 5 -20 10 0 6 5 10 10 10 19 0 10 19 -12 26 -22 7 -22 8 5 15 16 4 35 5 43
2 8 -3 14 -1 14 5 0 6 31 10 74 10 40 0 100 5 132 11 33 5 100 12 149 16 50 3
115 8 145 10 30 2 132 9 225 15 94 7 213 16 265 22 52 5 226 12 385 14 327 4
697 20 795 35 245 36 353 55 420 75 30 8 70 17 89 20 19 2 38 7 43 10 10 6 49
11 303 37 153 16 195 24 195 38 0 5 2 9 5 9 3 0 4 -71 3 -157z m-1880 10 c-15
-2 -42 -2 -60 0 -18 2 -6 4 27 4 33 0 48 -2 33 -4z m77 -23 c-3 -5 -12 -7 -20
-3 -21 7 -19 13 6 13 11 0 18 -4 14 -10z m-3417 -127 c5 -69 -44 -106 -116
-87 -28 8 -55 58 -47 84 5 17 2 20 -23 20 -18 0 -32 6 -36 15 -5 14 9 15 107
13 l112 -3 3 -42z m-68 -169 c0 -47 3 -55 18 -52 13 2 18 15 20 51 5 71 32 56
32 -18 0 -24 -7 -39 -26 -54 -68 -54 -166 9 -132 84 10 21 43 40 81 44 4 1 7
-24 7 -55z m-53 -136 l23 -21 44 24 c25 13 48 21 51 18 13 -14 -9 -38 -51 -55
-34 -14 -44 -23 -44 -41 0 -20 4 -22 33 -19 33 4 74 -11 62 -22 -4 -4 -54 -7
-111 -8 l-104 0 0 57 c0 48 4 60 22 73 30 21 47 20 75 -6z m5510 -555 c-1 -81
-3 -17 -3 142 0 160 2 226 3 148 2 -78 2 -208 0 -290z m-4120 -165 c-2 -13 -4
-3 -4 22 0 25 2 35 4 23 2 -13 2 -33 0 -45z m4110 -57 c-8 -64 -42 -143 -75
-173 l-26 -23 17 25 c35 50 67 126 73 173 4 26 9 47 12 47 2 0 2 -22 -1 -49z
m-4081 -63 c8 -26 29 -66 45 -90 l30 -43 -36 39 c-36 40 -66 118 -64 165 l2
26 4 -25 c2 -14 11 -46 19 -72z m-2155 -75 c13 -16 12 -17 -3 -4 -10 7 -18 15
-18 17 0 8 8 3 21 -13z m139 -127 c0 5 4 4 8 -1 4 -6 25 -17 47 -25 34 -12
201 -15 1065 -15 l1025 -1 -1010 7 c-556 3 -1026 10 -1045 15 -22 6 352 11
995 14 l1030 5 55 -22 c30 -11 66 -23 80 -26 14 -2 -468 -4 -1070 -3 -1144 1
-1141 1 -1187 44 -10 9 -13 13 -6 8 7 -5 13 -5 13 0z m2277 -22 c-3 -3 -12 -4
-19 -1 -8 3 -5 6 6 6 11 1 17 -2 13 -5z m86 -11 c-13 -2 -35 -2 -50 0 -16 2
-5 4 22 4 28 0 40 -2 28 -4z m3415 0 c-10 -2 -26 -2 -35 0 -10 3 -2 5 17 5 19
0 27 -2 18 -5z m-3361 -9 c-3 -3 -12 -4 -19 -1 -8 3 -5 6 6 6 11 1 17 -2 13
-5z m101 -1 c-15 -2 -42 -2 -60 0 -18 2 -6 4 27 4 33 0 48 -2 33 -4z m530 0
c-43 -2 -113 -2 -155 0 -43 1 -8 3 77 3 85 0 120 -2 78 -3z m1350 0 c-10 -2
-26 -2 -35 0 -10 3 -2 5 17 5 19 0 27 -2 18 -5z m679 0 c-20 -2 -52 -2 -70 0
-17 2 0 4 38 4 39 0 53 -2 32 -4z"/>
<path d="M863 8843 c-52 -10 -17 -21 74 -22 123 -3 136 -11 17 -11 -139 -1
-216 -49 -274 -171 -22 -46 -29 -55 -33 -39 -3 13 -1 18 6 13 7 -4 8 0 4 11
-4 10 -7 25 -8 34 0 9 -7 1 -14 -18 -11 -28 -14 -202 -14 -920 0 -804 2 -890
17 -939 11 -34 23 -55 34 -57 12 -1 15 3 10 14 -5 15 -3 15 11 3 13 -11 14
-17 5 -35 -10 -18 -9 -19 4 -9 8 7 18 10 21 6 4 -3 -1 -12 -11 -19 -14 -11
-15 -13 -1 -14 8 0 25 -13 37 -30 42 -56 78 -60 536 -60 l411 0 54 26 c64 29
130 95 160 159 21 45 21 49 21 943 0 935 0 934 -42 995 -15 21 -25 26 -44 21
-19 -5 -23 -3 -18 10 4 11 1 16 -10 16 -19 0 -21 16 -3 23 10 4 10 6 0 6 -7 1
-13 7 -13 14 0 6 -22 22 -49 35 -48 22 -54 22 -457 21 -225 -1 -419 -4 -431
-6z m275 -30 c-10 -2 -28 -2 -40 0 -13 2 -5 4 17 4 22 1 32 -1 23 -4z m150 0
c-16 -2 -40 -2 -55 0 -16 2 -3 4 27 4 30 0 43 -2 28 -4z m157 -22 c44 -21 82
-53 108 -91 25 -37 21 -49 -5 -14 -35 47 -92 93 -135 108 -21 8 -31 15 -23 15
8 0 33 -8 55 -18z m-492 -39 c-32 -3 -48 -22 -19 -22 8 0 13 -6 13 -12 -1 -30
17 -80 33 -90 15 -9 11 -16 -27 -51 -59 -54 -94 -116 -102 -180 l-6 -52 -67
-5 -68 -5 -6 43 c-3 23 -5 86 -2 140 3 84 7 104 31 144 43 75 108 106 199 98
41 -3 45 -5 21 -8z m476 -8 c59 -30 95 -77 108 -139 16 -76 9 -90 -52 -105
-30 -7 -63 -21 -73 -30 -18 -17 -20 -17 -37 12 -52 89 -133 146 -219 155 -48
5 -56 9 -66 33 -10 23 -6 69 7 93 2 4 66 7 142 7 128 0 141 -2 190 -26z m179
-807 c1 17 7 35 14 39 7 4 8 3 4 -4 -4 -7 -2 -12 5 -12 6 0 9 8 6 20 -3 11 -1
18 4 14 5 -3 9 -13 9 -22 0 -15 2 -15 10 -2 5 8 10 10 10 4 0 -6 11 -22 24
-35 13 -13 22 -32 20 -42 -1 -9 2 -15 6 -12 5 3 11 1 15 -4 3 -6 11 -8 18 -5
7 2 19 -7 27 -20 7 -14 17 -23 21 -21 4 3 10 -4 14 -15 3 -11 13 -20 21 -20 8
0 14 -4 14 -8 0 -5 8 -19 19 -30 49 -57 48 -242 -1 -282 -13 -10 -24 -17 -25
-16 -1 1 -4 51 -7 111 -4 97 -7 112 -27 127 -28 24 -70 23 -97 -2 -20 -19 -22
-31 -24 -148 -1 -93 -3 -112 -8 -72 -5 51 -6 52 -11 20 l-6 -35 -1 37 c-1 23
-7 37 -14 35 -7 -1 -16 24 -22 65 -7 37 -15 70 -19 74 -4 4 -8 -184 -9 -417
-3 -411 -3 -405 -8 191 -3 338 -3 737 0 885 l5 270 5 -350 c3 -192 6 -336 8
-318z m178 543 c1 -50 1 -50 -30 -49 -21 1 -24 3 -11 6 35 9 41 23 10 24 -30
1 -30 1 -5 9 l25 8 -24 1 c-24 1 -24 1 -5 16 17 13 17 14 2 15 -30 0 -20 20
10 20 26 0 27 -2 28 -50z m-691 -60 c0 -9 -9 -14 -22 -13 -35 1 -36 2 -23 18
16 19 45 16 45 -5z m680 -10 c-13 -6 -15 -9 -5 -9 11 -1 16 -14 18 -46 2 -44
1 -45 -28 -45 -20 0 -30 5 -30 15 0 9 9 15 23 15 18 0 19 -2 7 -10 -13 -8 -12
-10 3 -10 9 0 17 7 17 15 0 10 -10 15 -27 15 -26 1 -27 2 -10 14 17 13 17 14
0 21 -14 6 -15 9 -4 12 11 5 11 7 0 14 -9 6 -2 9 21 8 29 0 31 -2 15 -9z
m-226 -198 c2 -121 -37 -200 -120 -242 -53 -28 -77 -26 -92 8 -6 15 -16 30
-22 34 -6 5 -6 8 0 8 6 0 5 4 -1 8 -6 4 -21 25 -33 47 l-21 39 47 45 c49 49
93 129 93 174 0 28 0 28 60 24 37 -2 64 1 68 7 9 14 20 -68 21 -152z m-394
118 c-5 -8 -11 -8 -21 1 -12 10 -12 14 -2 20 16 10 33 -5 23 -21z m35 -20 c0
-5 -7 -10 -16 -10 -8 0 -12 5 -9 10 3 6 10 10 16 10 5 0 9 -4 9 -10z m590 -25
c-8 -9 -7 -15 2 -18 7 -3 -2 -6 -19 -6 -21 -1 -33 4 -33 12 0 19 8 25 36 25
19 0 22 -3 14 -13z m-10 -49 c0 -8 6 -17 13 -19 6 -3 -3 -6 -20 -6 -31 -1 -44
15 -26 32 12 12 33 7 33 -7z m-761 -126 c24 -12 39 -25 33 -28 -5 -4 -13 -25
-17 -47 -4 -22 -12 -48 -16 -57 -6 -11 -5 -18 4 -21 6 -3 -25 -6 -71 -6 -94
-1 -141 17 -185 69 -30 35 -53 101 -44 124 4 9 17 16 30 16 13 0 32 9 42 20
10 11 24 20 32 20 7 0 16 7 19 15 4 8 10 12 15 9 5 -3 9 1 9 8 0 7 24 -12 53
-43 28 -31 72 -67 96 -79z m811 -55 c37 -34 12 -115 -35 -115 -14 0 -25 5 -25
11 0 8 -4 8 -13 0 -40 -32 -69 68 -32 109 15 16 27 19 54 15 19 -3 42 -12 51
-20z m-69 -158 c-1 -12 -15 -9 -19 4 -3 6 1 10 8 8 6 -3 11 -8 11 -12z m-1094
-79 c-3 -8 -6 -5 -6 6 -1 11 2 17 5 13 3 -3 4 -12 1 -19z m202 -69 c-16 -10
-23 -4 -14 10 3 6 11 8 17 5 6 -4 5 -9 -3 -15z m56 -49 c3 -5 1 -10 -4 -10 -6
0 -11 5 -11 10 0 6 2 10 4 10 3 0 8 -4 11 -10z m872 -595 c2 -23 -1 -35 -10
-35 -9 0 -9 -2 1 -9 11 -6 9 -9 -6 -13 -27 -7 -46 6 -39 27 5 11 13 14 27 10
11 -4 20 -2 20 4 0 6 -12 14 -27 17 -25 7 -25 8 -8 20 30 22 40 17 42 -21z m1
-90 c2 -2 -11 -5 -28 -7 -21 -3 -30 0 -30 9 0 10 8 11 28 7 15 -4 28 -8 30 -9z
m2 -50 c0 -18 -45 -21 -56 -3 -5 8 0 9 14 6 12 -4 25 -2 28 3 8 13 14 11 14
-6z m0 -45 c0 -16 -6 -20 -32 -19 -31 2 -31 2 -5 6 15 2 27 8 27 13 0 5 -12
11 -27 13 -26 4 -26 4 5 6 26 1 32 -3 32 -19z m-203 -112 c-3 -8 -6 -5 -6 6
-1 11 2 17 5 13 3 -3 4 -12 1 -19z m-16 -41 c-10 -9 -11 -8 -5 6 3 10 9 15 12
12 3 -3 0 -11 -7 -18z m-811 -101 c14 -18 14 -18 -7 -6 -12 8 -19 18 -16 23 3
4 6 7 7 5 1 -2 8 -12 16 -22z"/>
<path d="M1743 7832 c-13 -23 -5 -42 17 -42 23 0 32 13 24 33 -8 23 -29 27
-41 9z"/>
<path d="M4391 8873 c-11 -10 -24 -32 -27 -50 -5 -27 -1 -37 25 -64 27 -26 37
-30 64 -25 18 3 40 16 50 27 23 29 22 84 -3 109 -25 25 -80 26 -109 3z m59
-37 c0 -3 -4 -8 -10 -11 -5 -3 -10 -1 -10 4 0 6 5 11 10 11 6 0 10 -2 10 -4z"/>
<path d="M5058 6473 c6 -2 12 -9 12 -15 0 -6 -7 -8 -15 -4 -12 4 -13 2 -6 -12
25 -43 33 -48 27 -17 -5 24 -1 20 19 -18 30 -58 32 -68 6 -39 -10 12 -22 22
-27 22 -4 0 -3 -5 4 -12 14 -14 16 -28 4 -28 -5 0 -17 16 -28 35 -10 19 -21
35 -25 35 -10 0 -44 -42 -39 -49 3 -3 -12 -7 -32 -9 -25 -2 -38 -8 -38 -18 0
-8 -5 -14 -11 -14 -6 0 -17 -7 -25 -15 -8 -8 -21 -12 -29 -9 -10 4 -15 -1 -15
-16 0 -25 -22 -50 -44 -50 -9 0 -16 -7 -16 -15 0 -8 -4 -15 -10 -15 -5 0 -10
-11 -10 -25 0 -18 -5 -25 -20 -25 -17 0 -20 -7 -20 -45 0 -38 -3 -45 -20 -45
-15 0 -20 7 -20 25 0 18 -5 25 -20 25 -16 0 -20 -7 -20 -30 0 -28 -2 -30 -40
-30 -22 0 -40 -4 -40 -8 0 -5 -48 -14 -107 -22 -119 -15 -127 -15 -195 -4 -33
4 -48 3 -48 -5 0 -6 7 -11 15 -11 8 0 15 -4 15 -10 0 -8 -114 -16 -180 -12 -8
0 -23 -4 -33 -10 -30 -16 -78 -28 -72 -18 3 5 -4 8 -15 7 -11 -1 -20 -8 -20
-15 0 -9 -6 -12 -16 -8 -8 3 -25 1 -37 -6 -12 -6 -63 -17 -114 -23 -54 -7 -98
-18 -107 -27 -18 -18 -111 -28 -336 -35 -238 -8 -342 -6 -350 7 -5 8 -9 6 -13
-4 -12 -30 -27 -16 -28 27 -1 37 -3 33 -16 -33 -40 -199 48 -530 200 -761 57
-85 216 -252 272 -284 150 -85 248 -161 398 -307 86 -84 157 -158 157 -164 0
-6 16 -19 35 -30 19 -10 35 -25 35 -34 0 -12 115 -128 149 -150 5 -3 18 -24
30 -47 12 -24 32 -50 46 -59 14 -9 25 -23 25 -31 0 -8 4 -12 8 -9 5 3 15 -4
23 -16 23 -34 63 -68 79 -68 8 -1 27 -18 42 -39 17 -25 37 -41 56 -46 17 -3
38 -15 48 -26 9 -10 23 -19 30 -19 7 0 25 -17 39 -37 29 -43 32 -38 10 14 -50
119 -96 279 -104 360 -4 48 -9 72 -10 53 -1 -19 -7 -44 -12 -55 -7 -15 -8 -12
-5 15 3 19 10 82 16 140 6 58 17 142 25 186 21 115 22 110 -34 118 -27 4 -64
12 -82 18 -31 11 -31 11 76 47 l107 36 23 59 c88 220 320 463 553 578 43 21
67 40 74 57 26 69 59 217 70 312 20 179 -13 406 -83 571 -43 101 -128 248
-142 247 -9 0 -8 -2 1 -6z"/>
<path d="M3790 4152 c0 -4 10 -13 23 -21 22 -14 22 -14 3 8 -20 22 -26 25 -26
13z"/>
<path d="M3846 4081 c-3 -4 7 -20 22 -34 45 -44 78 -82 91 -105 6 -12 16 -22
22 -22 14 0 -3 28 -44 72 -19 20 -32 39 -30 42 7 7 -15 34 -38 47 -10 5 -20 5
-23 0z"/>
<path d="M4000 3900 c0 -5 5 -10 10 -10 6 0 10 -6 10 -14 0 -18 77 -110 96
-114 7 -2 14 5 16 15 2 11 -19 38 -57 75 -59 57 -75 68 -75 48z"/>
<path d="M4153 3763 c-7 -3 -13 -9 -13 -15 0 -16 82 -108 91 -102 5 3 9 0 9
-7 0 -15 71 -79 88 -79 6 0 12 7 12 16 0 9 -6 14 -13 11 -7 -3 -13 3 -14 13
-2 28 -31 90 -42 90 -6 0 -11 7 -11 15 0 18 -17 20 -22 3 -3 -9 -9 -8 -21 4
-9 9 -17 20 -17 25 0 12 -33 30 -47 26z m77 -83 c0 -5 -2 -10 -4 -10 -3 0 -8
5 -11 10 -3 6 -1 10 4 10 6 0 11 -4 11 -10z"/>
<path d="M5851 3288 c0 -18 3 -26 6 -18 3 8 12 23 21 33 14 15 13 17 -6 17
-18 0 -22 -6 -21 -32z"/>
<path d="M202 7340 c0 -14 2 -19 5 -12 2 6 2 18 0 25 -3 6 -5 1 -5 -13z"/>
<path d="M212 7290 c0 -14 2 -19 5 -12 2 6 2 18 0 25 -3 6 -5 1 -5 -13z"/>
<path d="M210 515 c0 -5 5 -17 10 -25 5 -8 10 -10 10 -5 0 6 -5 17 -10 25 -5
8 -10 11 -10 5z"/>
<path d="M5079 1699 c-10 -6 -4 -9 19 -9 17 0 32 2 32 4 0 9 -39 13 -51 5z"/>
<path d="M3124 1548 c-3 -4 11 -8 30 -8 20 0 36 2 36 4 0 8 -61 12 -66 4z"/>
<path d="M3780 1550 c-20 -7 -17 -8 18 -7 23 0 42 3 42 7 0 8 -31 8 -60 0z"/>
<path d="M3918 1553 c7 -3 16 -2 19 1 4 3 -2 6 -13 5 -11 0 -14 -3 -6 -6z"/>
<path d="M4273 1543 c9 -2 25 -2 35 0 9 3 1 5 -18 5 -19 0 -27 -2 -17 -5z"/>
<path d="M3488 1523 c6 -2 18 -2 25 0 6 3 1 5 -13 5 -14 0 -19 -2 -12 -5z"/>
<path d="M970 1647 c0 -31 18 -47 55 -47 37 0 55 16 55 47 0 21 -4 23 -55 23
-51 0 -55 -2 -55 -23z"/>
<path d="M981 1496 c-20 -23 -10 -60 17 -64 21 -3 22 0 19 34 -4 42 -17 53
-36 30z"/>
<path d="M926 1327 c-12 -9 -17 -23 -14 -42 3 -27 7 -30 38 -30 30 0 35 3 38
26 3 24 -19 59 -37 59 -4 0 -15 -6 -25 -13z"/>
</g>
</svg>
